<?xml version="1.0" encoding="utf-8"?>
<svg viewBox="0 0 146.589 147.241" style="enable-background:new 0 0 114.4 122.88" xmlns="http://www.w3.org/2000/svg">
  <defs>
    <style type="text/css">.st0{fill-rule:evenodd;clip-rule:evenodd;fill:#DD0031;} .st1{fill-rule:evenodd;clip-rule:evenodd;fill:#C3002F;} .st2{fill-rule:evenodd;clip-rule:evenodd;fill:#FFFFFF;}</style>
  </defs>
  <g transform="matrix(1.1982500553131104, 0, 0, 1.1982500553131104, 4.754596233367934, 0.0000180000024556648)" style="">
    <polygon class="st0" points="57.2,0 57.2,0 57.2,0 0,20.4 8.72,96.03 57.2,122.88 57.2,122.88 57.2,122.88 105.68,96.03 114.4,20.4 57.2,0"/>
    <polygon class="st1" points="57.2,0 57.2,13.64 57.2,13.58 57.2,75.82 57.2,75.82 57.2,122.88 57.2,122.88 105.68,96.03 114.4,20.4 57.2,0"/>
    <path class="st2" d="M57.2,13.58L21.44,93.76l0,0h13.33l0,0l7.19-17.94h30.35l7.19,17.94l0,0h13.33l0,0L57.2,13.58L57.2,13.58 L57.2,13.58L57.2,13.58L57.2,13.58L57.2,13.58z M67.65,64.76H46.76L57.2,39.63L67.65,64.76L67.65,64.76z"/>
  </g>
</svg>