<?xml version="1.0" encoding="utf-8"?>
<svg viewBox="0 0 48 48" xmlns="http://www.w3.org/2000/svg">
  <path fill="#ffd600" d="M 0 48 L 0 0 L 48 0 L 48 48 L 0 48 Z" style="" transform="matrix(1, 0, 0, 1, 0, -3.552713678800501e-15)"/>
  <path fill="#000001" d="M 31.385 35.93 C 32.308 37.429 33.31 38.865 35.435 38.865 C 37.217 38.865 38.155 37.978 38.155 36.751 C 38.155 35.284 37.185 34.762 35.224 33.907 L 34.147 33.448 C 31.041 32.131 28.976 30.48 28.976 26.994 C 28.976 23.782 31.436 21.335 35.281 21.335 C 38.019 21.335 39.985 22.283 41.404 24.766 L 38.052 26.909 C 37.315 25.592 36.517 25.072 35.281 25.072 C 34.02 25.072 33.221 25.869 33.221 26.909 C 33.221 28.194 34.021 28.713 35.867 29.509 L 36.944 29.969 C 40.604 31.528 42.668 33.119 42.668 36.699 C 42.668 40.553 39.622 42.668 35.534 42.668 C 31.535 42.668 29.264 40.661 28 38.176 L 31.385 35.93 Z M 15.937 36.038 C 16.611 37.246 17.636 38.176 19.111 38.176 C 20.521 38.176 21.334 37.62 21.334 35.453 L 21.334 21.334 L 25.778 21.334 L 25.778 36.136 C 25.778 40.625 23.174 42.668 19.37 42.668 C 15.935 42.668 13.454 40.339 12.445 38.176 L 15.937 36.038 Z" style="" transform="matrix(1, 0, 0, 1, 0, -3.552713678800501e-15)"/>
</svg>