<?xml version="1.0" encoding="utf-8"?>
<svg viewBox="0 0 48 48" xmlns="http://www.w3.org/2000/svg">
  <path fill="#ffd600" d="M 7.632 40.369 L 7.632 7.632 L 40.369 7.632 L 40.369 40.369 L 7.632 40.369 Z" style="" transform="matrix(1, 0, 0, 1, 0, -3.552713678800501e-15)"/>
  <path fill="#000001" d="M 29.037 32.137 C 29.666 33.159 30.35 34.138 31.799 34.138 C 33.015 34.138 33.654 33.534 33.654 32.697 C 33.654 31.696 32.993 31.34 31.655 30.757 L 30.921 30.444 C 28.803 29.546 27.394 28.42 27.394 26.042 C 27.394 23.851 29.072 22.183 31.694 22.183 C 33.561 22.183 34.902 22.829 35.87 24.523 L 33.584 25.984 C 33.081 25.086 32.537 24.732 31.694 24.732 C 30.834 24.732 30.289 25.275 30.289 25.984 C 30.289 26.861 30.835 27.215 32.094 27.758 L 32.828 28.071 C 35.324 29.134 36.732 30.22 36.732 32.661 C 36.732 35.29 34.655 36.732 31.867 36.732 C 29.14 36.732 27.591 35.363 26.729 33.669 L 29.037 32.137 Z M 18.501 32.211 C 18.961 33.035 19.66 33.669 20.666 33.669 C 21.628 33.669 22.182 33.289 22.182 31.811 L 22.182 22.182 L 25.213 22.182 L 25.213 32.277 C 25.213 35.339 23.437 36.732 20.843 36.732 C 18.5 36.732 16.808 35.144 16.119 33.669 L 18.501 32.211 Z" style="" transform="matrix(1, 0, 0, 1, 0, -3.552713678800501e-15)"/>
</svg>