<?xml version="1.0" encoding="utf-8"?>
<svg viewBox="0 0 48 48" xmlns="http://www.w3.org/2000/svg">
  <path fill="#80deea" d="M 23.999 34.408 C 10.539 34.408 0 29.817 0 23.973 C 0 18.129 10.539 13.538 23.999 13.538 C 37.461 13.538 48 18.129 48 23.973 C 48 29.817 37.461 34.408 23.999 34.408 Z M 23.999 15.625 C 10.852 15.625 2.088 19.903 2.088 23.973 C 2.088 28.043 10.852 32.321 23.999 32.321 C 37.148 32.321 45.913 28.043 45.913 23.973 C 45.913 19.903 37.148 15.625 23.999 15.625 Z" style="" transform="matrix(1, 0, 0, 1, 0, 3.552713678800501e-15)"/>
  <path fill="#80deea" d="M 14.714 45.469 C 13.67 45.469 12.835 45.26 12 44.738 C 6.887 41.817 8.243 30.443 14.922 18.755 C 18.051 13.329 21.913 8.739 25.669 5.817 C 29.739 2.687 33.391 1.747 35.896 3.208 C 38.504 4.669 39.444 8.321 38.817 13.433 C 38.191 18.234 36.105 23.868 32.975 29.295 C 29.843 34.721 25.983 39.313 22.225 42.235 C 19.512 44.321 16.905 45.469 14.714 45.469 Z M 33.286 4.565 C 31.617 4.565 29.426 5.504 27.025 7.382 C 23.477 10.2 19.825 14.581 16.8 19.799 C 10.226 31.173 9.6 40.982 13.044 42.964 C 14.818 44.008 17.739 43.07 20.973 40.564 C 24.521 37.747 28.173 33.364 31.201 28.147 C 34.226 22.93 36.208 17.607 36.835 13.121 C 37.356 8.947 36.73 6.025 34.957 4.982 C 34.434 4.774 33.913 4.565 33.286 4.565 Z" style="" transform="matrix(1, 0, 0, 1, 0, 3.552713678800501e-15)"/>
  <path fill="#80deea" d="M 33.391 45.469 C 28.173 45.469 20.66 39.104 15.026 29.19 C 8.243 17.503 6.887 6.13 12 3.208 C 17.114 0.286 26.295 7.07 33.078 18.755 C 36.208 24.182 38.296 29.817 38.922 34.616 C 39.652 39.73 38.609 43.278 36 44.844 C 35.165 45.26 34.331 45.469 33.391 45.469 Z M 13.044 4.982 C 9.6 6.965 10.226 16.773 16.8 28.147 C 23.373 39.522 31.513 44.948 34.957 42.964 C 36.73 41.922 37.356 39 36.835 34.825 C 36.208 30.338 34.226 25.016 31.201 19.799 C 24.625 8.426 16.488 3 13.044 4.982 Z" style="" transform="matrix(1, 0, 0, 1, 0, 3.552713678800501e-15)"/>
  <circle cx="23.999" cy="23.973" r="4.174" fill="#80deea" style="" transform="matrix(1, 0, 0, 1, 0, 3.552713678800501e-15)"/>
</svg>