<?xml version="1.0" encoding="utf-8"?>
<svg viewBox="0 0 48 48" xmlns="http://www.w3.org/2000/svg">
  <path fill="#80deea" d="M 23.963 30.562 C 13.773 30.562 5.794 27.086 5.794 22.662 C 5.794 18.238 13.773 14.762 23.963 14.762 C 34.154 14.762 42.133 18.238 42.133 22.662 C 42.133 27.086 34.154 30.562 23.963 30.562 Z M 23.963 16.342 C 14.01 16.342 7.374 19.581 7.374 22.662 C 7.374 25.743 14.01 28.982 23.963 28.982 C 33.917 28.982 40.553 25.743 40.553 22.662 C 40.553 19.581 33.917 16.342 23.963 16.342 Z" style="" transform="matrix(1, 0, 0, 1, 0, 3.552713678800501e-15)"/>
  <path fill="#80deea" d="M 16.933 38.936 C 16.143 38.936 15.511 38.778 14.879 38.383 C 11.008 36.171 12.035 27.56 17.091 18.712 C 19.46 14.604 22.383 11.129 25.227 8.917 C 28.308 6.547 31.073 5.836 32.969 6.942 C 34.944 8.048 35.655 10.813 35.181 14.683 C 34.707 18.317 33.127 22.583 30.757 26.691 C 28.387 30.799 25.464 34.275 22.62 36.487 C 20.566 38.067 18.592 38.936 16.933 38.936 Z M 30.994 7.969 C 29.73 7.969 28.071 8.68 26.254 10.102 C 23.568 12.235 20.803 15.552 18.513 19.502 C 13.536 28.113 13.062 35.539 15.669 37.04 C 17.012 37.83 19.224 37.119 21.672 35.223 C 24.358 33.09 27.123 29.772 29.414 25.822 C 31.705 21.872 33.206 17.843 33.68 14.446 C 34.075 11.287 33.601 9.075 32.258 8.285 C 31.863 8.127 31.468 7.969 30.994 7.969 Z" style="" transform="matrix(1, 0, 0, 1, 0, 3.552713678800501e-15)"/>
  <path fill="#80deea" d="M 31.073 38.936 C 27.123 38.936 21.435 34.117 17.17 26.612 C 12.035 17.764 11.008 9.154 14.879 6.942 C 18.75 4.73 25.701 9.865 30.836 18.712 C 33.206 22.82 34.786 27.086 35.26 30.72 C 35.813 34.591 35.023 37.277 33.048 38.462 C 32.416 38.778 31.784 38.936 31.073 38.936 Z M 15.669 8.285 C 13.062 9.786 13.536 17.211 18.513 25.822 C 23.489 34.433 29.651 38.541 32.258 37.04 C 33.601 36.25 34.075 34.038 33.68 30.878 C 33.206 27.481 31.705 23.452 29.414 19.502 C 24.437 10.892 18.276 6.784 15.669 8.285 Z" style="" transform="matrix(1, 0, 0, 1, 0, 3.552713678800501e-15)"/>
  <circle cx="23.963" cy="22.662" r="3.16" fill="#80deea" style="" transform="matrix(1, 0, 0, 1, 0, 3.552713678800501e-15)"/>
</svg>