<?xml version="1.0" encoding="utf-8"?>
<svg viewBox="0 0 147.56 147.56" xmlns="http://www.w3.org/2000/svg">
  <defs>
    <style>.a{fill:#ff3e00;}.b{fill:#fff;}</style>
  </defs>
  <path class="a" d="M 127.343 19.523 C 113.642 -0.087 86.574 -5.9 67.011 6.566 L 32.642 28.47 C 23.238 34.362 16.756 43.945 14.784 54.865 C 14.347 57.299 14.126 59.766 14.122 62.239 C 14.144 68.961 15.794 75.577 18.927 81.525 C 15.988 85.991 13.982 91 13.03 96.262 C 11.063 107.39 13.659 118.843 20.236 128.035 C 33.938 147.647 61.067 153.459 80.569 140.995 L 114.902 119.09 C 124.299 113.189 130.767 103.593 132.711 92.67 C 133.154 90.241 133.375 87.776 133.372 85.307 C 133.364 78.598 131.738 71.991 128.629 66.046 C 131.567 61.585 133.572 56.576 134.525 51.322 C 134.951 48.89 135.169 46.429 135.172 43.962 C 135.177 35.204 132.438 26.67 127.343 19.547 L 127.343 19.523 Z M 127.343 19.523 Z" style=""/>
  <path class="b" d="M 63.648 129.886 C 61.406 130.464 59.097 130.76 56.778 130.763 C 47.831 130.764 39.452 126.374 34.359 119.018 C 31.292 114.732 29.648 109.597 29.65 104.329 C 29.654 102.849 29.781 101.371 30.034 99.912 C 30.24 98.825 30.515 97.753 30.863 96.706 L 31.513 94.736 L 33.266 96.069 C 37.336 99.056 41.884 101.327 46.714 102.793 L 47.988 103.179 L 47.868 104.451 C 47.868 104.667 47.868 104.895 47.868 105.112 C 47.866 106.704 48.362 108.257 49.286 109.554 C 50.801 111.796 53.328 113.145 56.035 113.157 C 56.731 113.16 57.426 113.071 58.1 112.894 C 58.848 112.695 59.561 112.384 60.213 111.969 L 94.547 89.957 C 96.641 88.63 97.905 86.32 97.897 83.844 C 97.888 82.249 97.381 80.7 96.445 79.413 C 94.907 77.198 92.38 75.879 89.684 75.882 C 88.987 75.878 88.293 75.967 87.617 76.145 C 86.873 76.339 86.164 76.652 85.517 77.07 L 72.427 85.429 C 70.27 86.796 67.918 87.828 65.448 88.49 C 63.207 89.068 60.897 89.362 58.581 89.367 C 49.636 89.365 41.26 84.982 36.16 77.635 C 33.099 73.348 31.454 68.213 31.452 62.946 C 31.455 61.467 31.583 59.987 31.836 58.528 C 33.023 51.966 36.91 46.2 42.547 42.641 L 76.918 20.749 C 79.075 19.376 81.427 18.338 83.895 17.675 C 86.14 17.099 88.448 16.807 90.763 16.81 C 99.731 16.785 108.139 21.167 113.258 28.529 C 116.299 32.824 117.924 37.964 117.904 43.229 C 117.904 44.714 117.774 46.196 117.52 47.661 C 117.316 48.746 117.04 49.817 116.691 50.867 L 116.043 52.837 L 114.291 51.551 C 110.223 48.557 105.674 46.284 100.84 44.827 L 99.568 44.43 L 99.686 43.157 C 99.686 42.939 99.686 42.712 99.686 42.496 C 99.686 40.9 99.191 39.342 98.271 38.041 C 96.733 35.831 94.213 34.513 91.521 34.511 C 90.83 34.525 90.145 34.63 89.479 34.822 C 88.729 35.013 88.014 35.326 87.366 35.747 L 52.996 57.639 C 51.295 58.718 50.124 60.459 49.766 62.443 C 49.681 62.862 49.629 63.288 49.609 63.716 C 49.609 65.304 50.104 66.853 51.026 68.146 C 52.561 70.359 55.084 71.678 57.776 71.678 C 58.474 71.682 59.168 71.591 59.841 71.415 C 60.591 71.221 61.304 70.908 61.955 70.489 L 75.068 62.084 C 77.225 60.712 79.579 59.68 82.046 59.022 C 84.291 58.441 86.597 58.147 88.915 58.144 C 97.864 58.143 106.245 62.526 111.348 69.877 C 114.408 74.162 116.054 79.296 116.056 84.564 C 116.059 86.063 115.926 87.557 115.659 89.031 C 114.477 95.595 110.591 101.362 104.946 104.92 L 70.637 126.811 C 68.476 128.185 66.12 129.221 63.648 129.886 Z M 63.648 129.886 Z" style=""/>
</svg>