<?xml version="1.0" encoding="utf-8"?>
<svg viewBox="0 0 147.56 147.56"  xmlns="http://www.w3.org/2000/svg">
  <defs>
    <style>.a{fill:#ff3e00;}.b{fill:#fff;}</style>
  </defs>
  <path class="a" d="M 110.926 36.153 C 101.424 22.553 82.652 18.522 69.085 27.167 L 45.25 42.358 C 38.729 46.444 34.234 53.09 32.866 60.663 C 32.563 62.351 32.41 64.062 32.407 65.777 C 32.422 70.438 33.566 75.027 35.739 79.152 C 33.701 82.248 32.31 85.723 31.65 89.371 C 30.285 97.089 32.086 105.032 36.647 111.407 C 46.149 125.008 64.963 129.038 78.488 120.394 L 102.298 105.203 C 108.815 101.11 113.301 94.456 114.649 86.881 C 114.956 85.196 115.109 83.487 115.107 81.775 C 115.101 77.122 113.973 72.54 111.818 68.417 C 113.855 65.323 115.245 61.85 115.907 58.206 C 116.202 56.52 116.353 54.813 116.356 53.101 C 116.358 47.028 114.459 41.109 110.926 36.17 L 110.926 36.153 Z M 110.926 36.153 Z" style=""/>
  <path class="b" d="M 66.753 112.69 C 65.198 113.091 63.597 113.296 61.989 113.298 C 55.784 113.299 49.973 110.255 46.441 105.153 C 44.315 102.181 43.174 98.62 43.176 94.967 C 43.178 93.94 43.267 92.915 43.442 91.903 C 43.584 91.149 43.776 90.406 44.017 89.679 L 44.467 88.313 L 45.683 89.238 C 48.506 91.309 51.66 92.885 55.01 93.901 L 55.893 94.168 L 55.81 95.051 C 55.81 95.201 55.81 95.359 55.81 95.509 C 55.808 96.613 56.152 97.69 56.793 98.59 C 57.844 100.145 59.596 101.08 61.473 101.089 C 61.957 101.09 62.438 101.029 62.906 100.906 C 63.424 100.768 63.919 100.552 64.371 100.264 L 88.182 84.999 C 89.634 84.079 90.511 82.478 90.505 80.759 C 90.499 79.654 90.147 78.58 89.498 77.686 C 88.431 76.151 86.679 75.236 84.809 75.238 C 84.326 75.235 83.845 75.297 83.376 75.421 C 82.86 75.555 82.368 75.772 81.919 76.062 L 72.841 81.859 C 71.345 82.807 69.714 83.523 68.002 83.982 C 66.447 84.383 64.846 84.587 63.239 84.59 C 57.036 84.589 51.227 81.549 47.69 76.454 C 45.568 73.481 44.426 69.92 44.425 66.268 C 44.427 65.241 44.516 64.215 44.692 63.203 C 45.515 58.652 48.21 54.654 52.12 52.185 L 75.956 37.003 C 77.452 36.051 79.083 35.331 80.795 34.871 C 82.351 34.472 83.952 34.27 85.558 34.271 C 91.777 34.254 97.608 37.293 101.157 42.399 C 103.267 45.378 104.394 48.942 104.38 52.593 C 104.38 53.623 104.29 54.651 104.114 55.666 C 103.972 56.419 103.781 57.162 103.539 57.89 L 103.089 59.256 L 101.874 58.365 C 99.053 56.289 95.898 54.712 92.546 53.701 L 91.663 53.426 L 91.746 52.543 C 91.746 52.393 91.746 52.235 91.746 52.085 C 91.746 50.978 91.403 49.898 90.764 48.995 C 89.698 47.462 87.95 46.548 86.083 46.547 C 85.604 46.557 85.128 46.63 84.667 46.763 C 84.147 46.895 83.652 47.112 83.202 47.405 L 59.366 62.587 C 58.187 63.335 57.374 64.543 57.126 65.918 C 57.067 66.209 57.031 66.504 57.017 66.801 C 57.017 67.902 57.361 68.977 58 69.874 C 59.065 71.408 60.814 72.323 62.681 72.323 C 63.165 72.325 63.646 72.263 64.113 72.14 C 64.633 72.006 65.128 71.789 65.579 71.498 L 74.673 65.669 C 76.169 64.718 77.801 64.002 79.512 63.545 C 81.069 63.143 82.669 62.939 84.276 62.937 C 90.482 62.936 96.294 65.976 99.833 71.074 C 101.956 74.045 103.097 77.606 103.098 81.259 C 103.1 82.298 103.008 83.335 102.823 84.357 C 102.003 88.909 99.308 92.909 95.394 95.376 L 71.6 110.558 C 70.102 111.51 68.468 112.229 66.753 112.69 Z M 66.753 112.69 Z" style=""/>
</svg>